PathFileType	4	(X/Y/Z)	D:\MotionData\Pi-Spi Study\20230118_AMCsubject1\Trimmed_right_abd_001_rotated.trc
DataRate	CameraRate	NumFrames	NumMarkers	Units	OrigDataRate	OrigDataStartFrame	OrigNumFrames
200.00	200.00	       9	35	mm	200.00	204	       271
Frame#	Time	C7			Sternum			r_AMC1			r_AMC2			r_AMC3			l_AMC1			l_AMC2			l_AMC3			PX			T8			r_humerous			r_elbow_medial			r_elbow_lateral			r_forearm			r_wrist_radius			r_wrist_ulna			r_MCP_1			r_MCP_3			l_humerous			l_elbow_medial			l_elbow_lateral			l_forearm			l_wrist_radius			l_wrist_ulna			l_MCP_1			l_MCP_3			r_ASIS			r_PSIS			l_ASIS			l_PSIS			r_IC			l_IC			TS			AI			AA			
		X1	Y1	Z1	X2	Y2	Z2	X3	Y3	Z3	X4	Y4	Z4	X5	Y5	Z5	X6	Y6	Z6	X7	Y7	Z7	X8	Y8	Z8	X9	Y9	Z9	X10	Y10	Z10	X11	Y11	Z11	X12	Y12	Z12	X13	Y13	Z13	X14	Y14	Z14	X15	Y15	Z15	X16	Y16	Z16	X17	Y17	Z17	X18	Y18	Z18	X19	Y19	Z19	X20	Y20	Z20	X21	Y21	Z21	X22	Y22	Z22	X23	Y23	Z23	X24	Y24	Z24	X25	Y25	Z25	X26	Y26	Z26	X27	Y27	Z27	X28	Y28	Z28	X29	Y29	Z29	X30	Y30	Z30	X31	Y31	Z31	X32	Y32	Z32	X33	Y33	Z33	X34	Y34	Z34	X35	Y35	Z35	

204	1.015	203.4436	1377.0198	-208.048	329.6152	1301.5515	-197.0798	201.5241	1322.2058	-41.4254	238.3543	1317.9499	-8.185	261.947	1350.3416	-28.8011	230.1833	1327.5122	-373.0991	271.3303	1318.2954	-403.1236	294.9511	1351.5446	-369.8531	382.2718	1112.045	-191.4401	150.2863	1193.6266	-219.9699	296.8782	1125.0938	-5.468	211.6152	992.0706	-24.5282	237.8084	998.1519	35.5778	284.8083	839.3765	43.4843	328.9433	776.9727	19.5998	281.2965	770.3528	38.4321	340.7836	677.2267	32.6251	299.3034	690.1478	44.2628	323.9054	1116.2423	-387.815	223.753	999.9836	-405.7103	262.7697	993.8334	-445.5201	312.2687	841.6594	-439.1852	341.3955	770.605	-406.1042	305.3219	766.6205	-433.9011	355.91	693.6137	-415.6855	312.7409	691.5812	-439.5634	364.5854	907.2374	-65.5099	177.0697	922.7996	-157.2408	374.4157	895.0369	-327.9952	181.7262	917.203	-260.9121	277.297	967.0027	-40.3197	285.2595	940.9081	-366.9269	113.0901	1304.9598	-94.5741	104.1353	1204.4375	-87.8414	188.8544	1300.301	29.7424
205	1.02	203.4515	1377.01	-208.0679	329.5933	1301.5387	-197.0778	201.5169	1322.2051	-41.4393	238.3613	1317.9558	-8.2035	261.9271	1350.338	-28.7954	230.1915	1327.5232	-373.1043	271.3005	1318.2889	-403.0962	295.0372	1351.4706	-369.8823	382.2753	1112.042	-191.4196	150.2698	1193.6252	-219.9715	296.8655	1125.0908	-5.5187	211.6108	992.0626	-24.5484	237.8059	998.177	35.5874	284.7808	839.3933	43.4963	328.9194	776.9517	19.6429	281.2638	770.3411	38.4679	340.7768	677.2243	32.6163	299.2543	690.2002	44.2762	323.8839	1116.2861	-387.8319	223.7435	999.988	-405.7147	262.7893	993.8453	-445.5165	312.2904	841.6402	-439.1917	341.4021	770.5838	-406.0784	305.3179	766.6224	-433.8862	355.9353	693.567	-415.6433	312.7205	691.6159	-439.5328	364.5886	907.2435	-65.5232	177.0561	922.7865	-157.2553	374.369	895.0055	-327.9886	181.7183	917.2123	-260.9163	277.267	966.9969	-40.3762	285.2306	940.9145	-366.9243	113.0913	1304.9802	-94.5781	104.111	1204.4041	-87.8525	188.8395	1300.3321	29.7165
206	1.025	203.4378	1377.0147	-208.0601	329.5967	1301.5502	-197.0733	201.5363	1322.2026	-41.4479	238.3111	1317.9618	-8.1775	261.9461	1350.3499	-28.8207	230.1752	1327.5332	-373.1125	271.296	1318.3118	-403.1039	294.9245	1351.5499	-369.8333	382.2783	1112.0354	-191.4197	150.2629	1193.6362	-219.9748	296.8643	1125.0957	-5.5144	211.5978	992.0637	-24.543	237.7861	998.1741	35.5613	284.7623	839.3885	43.4603	328.8844	776.9897	19.618	281.2867	770.2919	38.366	340.7657	677.2332	32.6115	299.2185	690.1827	44.2281	323.9002	1116.2467	-387.819	223.7297	1000.0046	-405.6983	262.7874	993.8453	-445.5325	312.2752	841.6525	-439.1923	341.4427	770.5768	-406.0817	305.3238	766.6213	-433.8813	355.95	693.5589	-415.6545	312.7172	691.6295	-439.5494	364.6203	907.257	-65.5181	177.0311	922.7777	-157.2659	374.3307	895.0084	-327.9906	181.6883	917.218	-260.9297	277.2861	967.0522	-40.3391	285.1935	940.8318	-366.9035	113.0746	1304.9571	-94.5901	104.154	1204.3889	-87.8634	188.8264	1300.3568	29.6946
207	1.03	203.4199	1377.0085	-208.07	329.5848	1301.5508	-197.0652	201.5094	1322.2073	-41.4524	238.3132	1318.0183	-8.2216	261.9647	1350.3151	-28.8353	230.1598	1327.5215	-373.1223	271.2768	1318.3141	-403.1381	294.6515	1351.6349	-369.3811	382.2624	1112.0494	-191.4208	150.2373	1193.6332	-219.9958	296.8774	1125.0371	-5.5269	211.5592	992.0647	-24.5335	237.7782	998.184	35.5527	284.7718	839.346	43.4742	328.8696	776.9684	19.6271	281.2671	770.3158	38.4066	340.7248	677.2077	32.6091	299.2092	690.1446	44.2206	323.9045	1116.2537	-387.8512	223.7113	999.9761	-405.7109	262.7661	993.8507	-445.5233	312.3129	841.6054	-439.1758	341.4182	770.6015	-406.093	305.2394	766.7324	-433.9318	355.9087	693.6325	-415.6263	312.7732	691.5812	-439.549	364.5323	907.2666	-65.4737	177.0211	922.8044	-157.2713	374.3508	895.0005	-328.0031	181.6967	917.2061	-260.9314	277.2234	967.0202	-40.3512	285.1039	940.9782	-366.9536	113.0608	1304.9766	-94.5974	104.1346	1204.3976	-87.8331	188.7879	1300.3721	29.746
208	1.035	203.4158	1377.0131	-208.0853	329.5752	1301.5544	-197.1336	201.5014	1322.1999	-41.4621	238.2602	1318.0714	-8.2056	261.9488	1350.3436	-28.8615	230.1585	1327.521	-373.1349	271.2465	1318.3149	-403.1103	294.663	1351.6088	-369.3861	382.196	1112.0342	-191.4523	150.2269	1193.6268	-219.9989	296.8436	1125.0853	-5.506	211.5596	992.0714	-24.5512	237.7741	998.1815	35.5493	284.723	839.3699	43.4594	328.8522	776.9495	19.6153	281.2601	770.3221	38.4321	340.7348	677.2216	32.5927	299.2364	690.1426	44.2416	323.8894	1116.2247	-387.8245	223.6719	999.8613	-405.7405	262.8338	993.9335	-445.5512	312.2954	841.616	-439.1983	341.4355	770.5788	-406.1074	305.2355	766.7222	-433.9179	355.9207	693.6215	-415.6741	312.822	691.6281	-439.6584	364.5471	907.2786	-65.5122	177.0071	922.7961	-157.2822	374.3232	895.027	-328.0072	181.6713	917.1689	-260.9293	277.2311	967.0477	-40.3366	285.089	940.9714	-366.9362	113.0502	1304.9547	-94.6039	104.1084	1204.384	-87.8246	188.7815	1300.4194	29.6983
209	1.04	203.3984	1377.0089	-208.1007	329.5806	1301.5333	-197.1244	201.4885	1322.2096	-41.474	238.2279	1318.0273	-8.2277	261.916	1350.3545	-28.8498	230.1214	1327.5287	-373.1211	271.2469	1318.3085	-403.147	294.6195	1351.6169	-369.4101	382.2293	1112.0331	-191.4558	150.2205	1193.6254	-220.0188	296.7831	1125.1012	-5.4957	211.518	992.0546	-24.5432	237.7378	998.1755	35.5508	284.7738	839.3554	43.4316	328.8238	777.0004	19.6145	281.2417	770.295	38.3602	340.7083	677.2299	32.5814	299.2146	690.106	44.2022	323.8926	1116.2424	-387.8633	223.7124	999.9746	-405.7263	262.7431	993.8284	-445.5451	312.3112	841.5717	-439.1653	341.3589	770.6942	-406.1107	305.2508	766.6808	-433.8905	355.9341	693.6375	-415.6824	312.7982	691.6065	-439.6064	364.4844	907.2543	-65.4857	176.9698	922.7703	-157.2637	374.3267	895.0385	-327.9941	181.6447	917.2206	-260.9444	277.2098	967.0607	-40.3859	285.0929	940.9397	-366.9577	113.0341	1304.9689	-94.6007	104.0913	1204.3669	-87.8133	188.7584	1300.4177	29.7089
210	1.045	203.3641	1376.9932	-208.1121	329.5206	1301.5512	-197.1423	201.4517	1322.1805	-41.5008	238.2481	1318.046	-8.2603	261.9072	1350.3272	-28.8695	230.1181	1327.5158	-373.1325	271.2039	1318.3004	-403.1402	294.6192	1351.6145	-369.4036	382.2086	1112.0061	-191.4721	150.1892	1193.6044	-220.0333	296.7874	1125.0839	-5.5076	211.5026	992.0347	-24.5566	237.7219	998.1778	35.5469	284.7098	839.3711	43.447	328.8193	776.9927	19.5773	281.2356	770.3058	38.3671	340.8422	677.3258	32.6919	299.2098	690.0328	44.188	323.8333	1116.2886	-387.8397	223.7035	999.9725	-405.7475	262.7362	993.8287	-445.5548	312.2885	841.6158	-439.2335	341.3831	770.7074	-406.1276	305.207	766.7126	-433.9194	355.8996	693.6724	-415.6578	312.8101	691.6171	-439.6155	364.4865	907.2857	-65.5061	176.9535	922.7793	-157.2718	374.3025	895.0175	-328.0175	181.6336	917.2117	-260.9693	276.1412	966.6795	-40.4372	285.0124	940.9362	-366.9784	113.0107	1304.9791	-94.6124	104.0924	1204.3461	-87.7968	188.7694	1300.4168	29.6852
211	1.05	203.3626	1376.9821	-208.1172	329.5292	1301.5624	-197.1627	201.4419	1322.1827	-41.5116	238.2536	1317.9874	-8.2608	261.8879	1350.3198	-28.8654	230.0898	1327.5127	-373.1438	271.2108	1318.276	-403.1986	294.7546	1351.1156	-370.9482	382.2053	1111.9935	-191.5177	150.1803	1193.6121	-220.0337	296.777	1125.0964	-5.5374	211.515	992.0466	-24.5595	237.6771	998.1553	35.5352	284.6658	839.3506	43.4594	328.7802	776.9878	19.6132	281.1835	770.312	38.3843	340.6883	677.222	32.5391	299.1665	690.0952	44.1812	323.8437	1116.2148	-387.8429	223.6889	999.9418	-405.7443	262.7162	993.8289	-445.5548	312.2452	841.6623	-439.2427	341.4504	770.6022	-406.1315	305.2315	766.6772	-433.9328	355.9061	693.6352	-415.6392	312.8203	691.5797	-439.5987	364.5113	907.2812	-65.5229	176.9481	922.7631	-157.2931	374.3317	895.0292	-328.0125	181.6147	917.2056	-260.9394	277.1491	967.0793	-40.3399	285.0783	940.8428	-366.9161	113.0223	1304.9503	-94.6192	104.1021	1204.3715	-87.8108	188.769	1300.4491	29.6866
212	1.055	203.3283	1376.9856	-208.1199	329.4987	1301.5632	-197.1608	201.4115	1322.1907	-41.517	238.2285	1317.9855	-8.2871	261.8534	1350.3431	-28.8893	230.0519	1327.5092	-373.1704	271.1819	1318.282	-403.2006	294.5743	1351.6054	-369.4383	382.1458	1112.0248	-191.5068	150.1692	1193.6161	-220.0327	296.7173	1125.0962	-5.5415	211.5014	992.0385	-24.558	237.7214	998.1205	35.4134	284.6963	839.3506	43.4245	328.7856	776.9948	19.5609	281.2261	770.2877	38.3745	340.6572	677.2171	32.5427	299.21	690.0486	44.1532	323.8265	1116.2618	-387.8664	223.6835	999.9255	-405.7743	262.7163	993.8136	-445.5633	312.3048	841.6103	-439.2166	341.4299	770.6491	-406.1809	305.2569	766.6981	-433.923	355.9025	693.6487	-415.671	312.7953	691.5915	-439.583	364.4661	907.2895	-65.5023	176.9563	922.7728	-157.3155	374.2994	895.0181	-328.0101	181.611	917.1798	-260.9851	277.1397	967.0632	-40.3798	284.9606	940.9119	-366.9135	113.01	1304.9412	-94.6216	104.0565	1204.3584	-87.8034	188.7877	1300.4243	29.6666
